#!OML:ASF H:\LiuWeirdWalks\Patient Classification 1\Patient 1\Session 1\male.ASF
:FULLY-SPECIFIED
:DEGREES
310
root -0.207002 17.9599 -22.8788 1.42661 5.98994 0.567774
lowerback 3.12254 -0.231258 -1.89279
upperback 0.223486 -0.34248 1.98282
thorax -1.49818 -0.15282 3.1158
lowerneck -16.9169 1.6857 7.91179
upperneck 31.1101 2.53444 -7.69192
head 13.5163 1.02835 -4.01871
rclavicle -2.13942e-014 5.56597e-015
rhumerus -20.4545 -26.6365 -10.2214
rradius 27.3326
rwrist 3.08958
rhand -24.1796 -4.89939
rfingers 7.12502
rthumb 2.30395 -34.8667
lclavicle -2.13942e-014 5.56597e-015
lhumerus -14.4668 27.4301 21.4815
lradius 25.511
lwrist -10.0974
lhand -13.1792 6.30198
lfingers 7.12502
lthumb 12.9204 35.882
rfemur -5.13266 1.23779 16.8565
rtibia 28.6953
rfoot -15.5732 -21.9365
rtoes -4.68476
lfemur -4.17089 -2.20005 -16.6609
ltibia 22.6386
lfoot -10.2285 17.734
ltoes -11.8017
311
root -0.226827 17.9585 -22.8714 1.42158 6.02593 0.57255
lowerback 3.13899 -0.236067 -1.86438
upperback 0.226232 -0.348277 1.97044
thorax -1.50442 -0.155881 3.08733
lowerneck -17.0024 1.68155 7.91551
upperneck 31.2045 2.52148 -7.68107
head 13.5742 1.02439 -4.02201
rclavicle -6.21202e-015 6.36111e-015
rhumerus -20.4271 -26.5493 -10.1841
rradius 27.3712
rwrist 3.0131
rhand -24.181 -4.93287
rfingers 7.12502
rthumb 2.30251 -34.9002
lclavicle -6.21202e-015 6.36111e-015
lhumerus -14.5077 27.3652 21.4323
lradius 25.5577
lwrist -9.98003
lhand -13.1624 6.34937
lfingers 7.12502
lthumb 12.9367 35.9283
rfemur -5.13178 1.24011 16.9337
rtibia 28.7533
rfoot -15.628 -21.9941
rtoes -4.66521
lfemur -4.13621 -2.29552 -16.6018
ltibia 22.6117
lfoot -10.2098 17.7904
ltoes -11.7971
312
root -0.24675 17.9569 -22.8639 1.41456 6.05818 0.576926
lowerback 3.15136 -0.23676 -1.82924
upperback 0.232783 -0.348348 1.95617
thorax -1.50491 -0.156253 3.05282
lowerneck -17.1001 1.65254 7.8491
upperneck 31.3082 2.47965 -7.62696
head 13.6341 1.00508 -4.00049
rclavicle -2.80783e-015 -4.77083e-015
rhumerus -20.4064 -26.4991 -10.1411
rradius 27.4038
rwrist 2.95902
rhand -24.1757 -4.95804
rfingers 7.12502
rthumb 2.30768 -34.9253
lclavicle -2.80783e-015 -4.77083e-015
lhumerus -14.5317 27.3283 21.3908
lradius 25.5946
lwrist -9.8872
lhand -13.146 6.34534
lfingers 7.12502
lthumb 12.9524 35.9233
rfemur -5.12773 1.24694 17.0114
rtibia 28.8103
rfoot -15.6848 -22.0485
rtoes -4.64631
lfemur -4.10115 -2.38926 -16.5422
ltibia 22.5926
lfoot -10.1976 17.849
ltoes -11.7874
313
root -0.266599 17.9552 -22.856 1.40938 6.08669 0.578154
lowerback 3.15377 -0.236554 -1.77861
upperback 0.238225 -0.346631 1.93755
thorax -1.50119 -0.155887 3.00493
lowerneck -17.1347 1.58388 7.70481
upperneck 31.3613 2.39678 -7.54188
head 13.6525 0.962916 -3.95639
rclavicle 8.19987e-016 -7.95139e-015
rhumerus -20.3953 -26.4614 -10.0981
rradius 27.4344
rwrist 2.91589
rhand -24.153 -4.95976
rfingers 7.12502
rthumb 2.32961 -34.9268
lclavicle 8.19987e-016 -7.95139e-015
lhumerus -14.5475 27.3036 21.3472
lradius 25.6233
lwrist -9.83602
lhand -13.1195 6.28507
lfingers 7.12502
lthumb 12.978 35.8614
rfemur -5.1215 1.25066 17.0906
rtibia 28.8636
rfoot -15.7496 -22.0891
rtoes -4.62171
lfemur -4.07228 -2.45913 -16.4776
ltibia 22.584
lfoot -10.1904 17.8934
ltoes -11.7962
314
root -0.286698 17.9536 -22.8482 1.41035 6.12617 0.580597
lowerback 3.15018 -0.242393 -1.73115
upperback 0.243424 -0.352944 1.92448
thorax -1.49378 -0.15954 2.96488
lowerneck -17.1685 1.51035 7.55826
upperneck 31.408 2.31263 -7.47268
head 13.6682 0.917697 -3.91832
rclavicle 3.95085e-015 -7.15625e-015
rhumerus -20.3755 -26.41 -10.0556
rradius 27.4701
rwrist 2.84003
rhand -24.1178 -4.96949
rfingers 7.12502
rthumb 2.36355 -34.9361
lclavicle 3.95085e-015 -7.15625e-015
lhumerus -14.5728 27.3026 21.3044
lradius 25.6479
lwrist -9.82733
lhand -13.099 6.22011
lfingers 7.12502
lthumb 12.9978 35.7952
rfemur -5.1179 1.24492 17.1686
rtibia 28.9127
rfoot -15.8169 -22.1268
rtoes -4.59138
lfemur -4.05886 -2.51479 -16.4111
ltibia 22.5855
lfoot -10.1793 17.9181
ltoes -11.8254
315
root -0.307149 17.9521 -22.8403 1.41445 6.16521 0.568872
lowerback 3.14726 -0.245642 -1.67228
upperback 0.24711 -0.355302 1.91728
thorax -1.4886 -0.161218 2.92429
lowerneck -17.1234 1.46866 7.5216
upperneck 31.3367 2.26708 -7.48428
head 13.6222 0.891622 -3.92039
rclavicle -1.2424e-015 2.38542e-015
rhumerus -20.3641 -26.3734 -10.0068
rradius 27.505
rwrist 2.77845
rhand -24.072 -4.95748
rfingers 7.12502
rthumb 2.40778 -34.9236
lclavicle -1.2424e-015 2.38542e-015
lhumerus -14.5872 27.3218 21.2713
lradius 25.6667
lwrist -9.84345
lhand -13.0967 6.1708
lfingers 7.12502
lthumb 13 35.7457
rfemur -5.11651 1.23707 17.2631
rtibia 28.9579
rfoot -15.8823 -22.1587
rtoes -4.56205
lfemur -4.05581 -2.53914 -16.3231
ltibia 22.595
lfoot -10.1726 17.9144
ltoes -11.8614
316
root -0.327951 17.9508 -22.8326 1.4194 6.20319 0.549878
lowerback 3.13859 -0.253772 -1.61014
upperback 0.248521 -0.363904 1.91612
thorax -1.48213 -0.166008 2.88833
lowerneck -17.0492 1.43702 7.50356
upperneck 31.2566 2.23857 -7.51543
head 13.5684 0.872968 -3.93024
rclavicle 1.38404e-014 -9.54166e-015
rhumerus -20.3407 -26.3198 -9.96866
rradius 27.5432
rwrist 2.70376
rhand -24.0493 -4.98523
rfingers 7.12502
rthumb 2.42976 -34.9511
lclavicle 1.38404e-014 -9.54166e-015
lhumerus -14.6232 27.3473 21.2296
lradius 25.6916
lwrist -9.86522
lhand -13.1132 6.17375
lfingers 7.12502
lthumb 12.984 35.7497
rfemur -5.11882 1.22365 17.3656
rtibia 29.0002
rfoot -15.9399 -22.1869
rtoes -4.5402
lfemur -4.05812 -2.55972 -16.225
ltibia 22.6091
lfoot -10.1646 17.9059
ltoes -11.8955
